# xmcd
#
# Track frame offsets:
#	150
#	10788
#	24283
#	36012
#	45808
#	58408
#	70033
#	82083
#	94277
#	108304
#	119884
#	138411
#	155517
#	165145
#	176593
#
# Disc length: 2526 seconds
#
# Revision: 1
# Processed by: cddbd v1.5.2PL0 Copyright (c) Steve Scherf et al.
# Submitted via: audiograbber 1.83.01
#
DISCID=bc09dc0f
DTITLE=Various Artist - Lifetime of Country Romance - Sweet Dreams - Disc 1
DYEAR=2006
DGENRE=Country
TTITLE0=Leroy Von Duke - Walk On By
TTITLE1=Faron Young - Its Four In The Morning
TTITLE2=Patsy Cline - Sweet Dreams
TTITLE3=Ned Miller - From a Jack to a King
TTITLE4=Hank Williams and the Drifting Cowboys - Im So Lonesome I Could Cry
TTITLE5=Jack Greene - Theres Goes My Everything
TTITLE6=Conway Twitty - Loretta Lynn - After The Fire Is Gone
TTITLE7=Brenda Lee - I'm Sorry
TTITLE8=Barbara Mandrell - (If Loving You Is Wrong) I Don't Want to Be Right
TTITLE9=Sammi Smith - Help Me Make It Through The Night
TTITLE10=Don Williams - I Believe In You
TTITLE11=Hank Williams, Jr. with the Mike Curb Congregation - All For The Love 
TTITLE11=of Sunshine
TTITLE12=Tom T. Hall - I Love
TTITLE13=Webb Pierce - Slowly
TTITLE14=Bob Wills and His Texas Playboys - Faded Love
EXTD=
EXTT0=
EXTT1=
EXTT2=
EXTT3=
EXTT4=
EXTT5=
EXTT6=
EXTT7=
EXTT8=
EXTT9=
EXTT10=
EXTT11=
EXTT12=
EXTT13=
EXTT14=
PLAYORDER=
